<?xml version="1.0" encoding="utf-8"?>
<!-- Generator: Adobe Illustrator 23.1.1, SVG Export Plug-In . SVG Version: 6.00 Build 0)  -->
<svg version="1.1" xmlns="http://www.w3.org/2000/svg" xmlns:xlink="http://www.w3.org/1999/xlink" x="0px" y="0px"
	 viewBox="0 0 42.52 42.52" style="enable-background:new 0 0 42.52 42.52;" xml:space="preserve">
<style type="text/css">
	.st0{fill:#FFFFFF;stroke:#000000;stroke-width:0.25;stroke-miterlimit:10;}
	.st1{fill:#981620;}
	.st2{fill:none;stroke:#070308;stroke-width:8;stroke-linecap:round;stroke-miterlimit:10;}
</style>
<g id="Camada_4">
	<circle class="st0" cx="21.27" cy="21.72" r="20.27"/>
</g>
<g id="Camada_1">
	<g>
		<g>
			<ellipse class="st1" cx="15.55" cy="25.62" rx="4.5" ry="4.05"/>
			<path class="st1" d="M15.55,29.93c-2.62,0-4.75-1.93-4.75-4.3s2.13-4.3,4.75-4.3s4.75,1.93,4.75,4.3S18.17,29.93,15.55,29.93z
				 M15.55,21.82c-2.35,0-4.25,1.71-4.25,3.8c0,2.1,1.91,3.8,4.25,3.8s4.25-1.71,4.25-3.8C19.8,23.53,17.89,21.82,15.55,21.82z"/>
		</g>
		<g>
			<ellipse class="st1" cx="27.86" cy="25.62" rx="4.5" ry="4.05"/>
			<path class="st1" d="M27.86,29.93c-2.62,0-4.75-1.93-4.75-4.3s2.13-4.3,4.75-4.3c2.62,0,4.75,1.93,4.75,4.3
				S30.48,29.93,27.86,29.93z M27.86,21.82c-2.35,0-4.25,1.71-4.25,3.8c0,2.1,1.91,3.8,4.25,3.8c2.34,0,4.25-1.71,4.25-3.8
				C32.11,23.53,30.2,21.82,27.86,21.82z"/>
		</g>
		<path class="st1" d="M15.55,30.52c-2.95,0-5.36-2.13-5.36-4.75c0-2.62,2.4-4.75,5.36-4.75s5.36,2.13,5.36,4.75
			C20.91,28.39,18.5,30.52,15.55,30.52z M15.55,21.52c-2.68,0-4.86,1.91-4.86,4.25c0,2.35,2.18,4.25,4.86,4.25s4.86-1.91,4.86-4.25
			C20.41,23.43,18.23,21.52,15.55,21.52z"/>
		<path class="st1" d="M27.86,30.52c-2.95,0-5.36-2.13-5.36-4.75c0-2.62,2.4-4.75,5.36-4.75c2.95,0,5.36,2.13,5.36,4.75
			C33.22,28.39,30.81,30.52,27.86,30.52z M27.86,21.52c-2.68,0-4.86,1.91-4.86,4.25c0,2.35,2.18,4.25,4.86,4.25s4.86-1.91,4.86-4.25
			C32.72,23.43,30.54,21.52,27.86,21.52z"/>
		<g>
			<path class="st1" d="M4.14,21.27c0,0,6.91,3.45,17.57,3.45"/>
			<path class="st1" d="M21.7,26.72c-11,0-18.16-3.52-18.46-3.67c-0.99-0.49-1.39-1.69-0.89-2.68c0.49-0.99,1.69-1.38,2.68-0.89
				c0.11,0.06,6.71,3.25,16.68,3.25c1.1,0,2,0.89,2,2S22.81,26.72,21.7,26.72z"/>
		</g>
		<g>
			<path class="st1" d="M38.38,21.3c0,0-6.91,3.45-17.57,3.45"/>
			<path class="st1" d="M20.82,26.75c-1.1,0-2-0.89-2-2s0.89-2,2-2c10,0,16.61-3.21,16.68-3.25c0.99-0.49,2.18-0.09,2.68,0.9
				c0.49,0.99,0.09,2.18-0.89,2.67C38.98,23.24,31.82,26.75,20.82,26.75z"/>
		</g>
		<path class="st2" d="M8.49,21.72"/>
		<g>
			<path class="st1" d="M7.74,21.57c0,0,1.8,0.6,2.4-0.3c0.6-0.9,2.1-5.71,2.4-6.3c0.3-0.6,1.8-4.8,4.2-4.8s4.8,0,4.8,0v14.11
				C21.56,24.27,8.34,23.07,7.74,21.57z"/>
			<path class="st1" d="M21.8,24.54l-0.27-0.03C9.12,23.36,7.66,22.04,7.51,21.66l-0.2-0.5l0.51,0.17c0.45,0.15,1.71,0.4,2.12-0.2
				c0.36-0.55,1.12-2.74,1.68-4.33c0.33-0.96,0.59-1.71,0.71-1.94c0.03-0.07,0.08-0.18,0.15-0.33c0.55-1.26,1.99-4.61,4.28-4.61
				h5.05V24.54z M8.9,22.01c2.11,0.73,7.4,1.51,12.4,1.98V10.41h-4.55c-1.96,0-3.36,3.25-3.82,4.31c-0.07,0.16-0.12,0.28-0.16,0.35
				c-0.1,0.2-0.37,0.98-0.68,1.88c-0.59,1.71-1.33,3.85-1.73,4.45C10.03,21.89,9.45,22.02,8.9,22.01z"/>
		</g>
		<g>
			<path class="st1" d="M35.37,21.57c0,0-1.8,0.6-2.4-0.3c-0.6-0.9-2.1-5.71-2.4-6.3c-0.3-0.6-1.8-4.8-4.2-4.8s-4.8,0-4.8,0v14.11
				C21.56,24.27,34.76,23.07,35.37,21.57z"/>
			<path class="st1" d="M21.32,24.54l-0.02-0.5l0.01,0V9.91h5.05c2.29,0,3.74,3.35,4.28,4.61c0.06,0.15,0.11,0.26,0.15,0.33
				c0.12,0.23,0.38,0.99,0.71,1.94c0.55,1.6,1.31,3.79,1.68,4.34c0.4,0.6,1.66,0.35,2.12,0.2l0.51-0.17l-0.2,0.5
				c-0.15,0.38-1.61,1.7-14,2.85L21.32,24.54z M21.81,10.41V24c4.99-0.47,10.29-1.25,12.39-1.98c-0.54-0.01-1.12-0.12-1.45-0.6
				c-0.4-0.6-1.14-2.74-1.73-4.45c-0.31-0.9-0.58-1.68-0.68-1.88c-0.04-0.07-0.09-0.19-0.16-0.35c-0.46-1.07-1.86-4.31-3.82-4.31
				H21.81z"/>
		</g>
	</g>
</g>
</svg>
