<?xml version="1.0" encoding="utf-8"?>
<!-- Generator: Adobe Illustrator 23.1.1, SVG Export Plug-In . SVG Version: 6.00 Build 0)  -->
<svg version="1.1" id="Camada_1" xmlns="http://www.w3.org/2000/svg" xmlns:xlink="http://www.w3.org/1999/xlink" x="0px" y="0px"
	 viewBox="0 0 141.73 85.04" style="enable-background:new 0 0 141.73 85.04;" xml:space="preserve">
<style type="text/css">
	.st0{fill:#A0001D;stroke:#A0001D;stroke-miterlimit:10;}
	.st1{fill:none;stroke:#A0001D;stroke-linecap:round;stroke-miterlimit:10;}
	.st2{fill:none;stroke:#A0001D;stroke-miterlimit:10;}
	.st3{fill:#A0001D;stroke:#A0001D;stroke-width:8;stroke-linecap:round;stroke-miterlimit:10;}
	.st4{fill:none;stroke:#000000;stroke-width:8;stroke-linecap:round;stroke-miterlimit:10;}
	.st5{fill:#A0001D;stroke:#A0001D;stroke-linecap:round;stroke-miterlimit:10;}
	.st6{fill:#A0001D;}
</style>
<g>
	<ellipse class="st0" cx="58.95" cy="40.91" rx="9.02" ry="8.12"/>
	<ellipse class="st0" cx="83.61" cy="40.91" rx="9.02" ry="8.12"/>
	<ellipse class="st1" cx="58.95" cy="41.21" rx="10.23" ry="9.02"/>
	<ellipse class="st2" cx="83.61" cy="41.21" rx="10.23" ry="9.02"/>
	<path class="st3" d="M36.09,32.19c0,0,13.84,6.92,35.19,6.92"/>
	<path class="st3" d="M104.69,32.25c0,0-13.84,6.92-35.19,6.92"/>
	<path class="st4" d="M44.81,33.09"/>
	<path class="st5" d="M43.31,32.79c0,0,3.61,1.2,4.81-0.6c1.2-1.8,4.21-11.43,4.81-12.63c0.6-1.2,3.61-9.62,8.42-9.62
		c4.81,0,9.62,0,9.62,0V38.2C70.98,38.2,44.51,35.79,43.31,32.79z"/>
	<path class="st5" d="M98.65,32.79c0,0-3.61,1.2-4.81-0.6c-1.2-1.8-4.21-11.43-4.81-12.63c-0.6-1.2-3.61-9.62-8.42-9.62
		c-4.81,0-9.62,0-9.62,0V38.2C70.98,38.2,97.44,35.79,98.65,32.79z"/>
</g>
<g>
	<g>
		<path class="st6" d="M14.88,59.36c-0.2,0.63-0.32,1.09-0.4,1.61c-1.18-0.38-1.76-0.57-2.94-0.97c0.24-0.46,0.41-0.88,0.64-1.53
			c0.71-2.09,1.06-3.14,1.77-5.23c-0.6-0.2-0.9-0.31-1.5-0.52c-0.8-0.28-1.02-0.34-1.95-0.61c0.28-0.79,0.43-1.18,0.71-1.97
			c0.4,0.19,1.08,0.47,1.85,0.73c2.21,0.77,3.32,1.13,5.54,1.83c0.89,0.28,1.4,0.41,2,0.53c-0.24,0.8-0.36,1.2-0.6,2
			c-0.56-0.23-1.06-0.4-1.98-0.69c-0.58-0.18-0.87-0.27-1.45-0.46C15.89,56.2,15.55,57.25,14.88,59.36z"/>
		<path class="st6" d="M20.28,62.72c0.22-0.47,0.37-0.91,0.56-1.56c0.64-2.23,0.95-3.35,1.59-5.58c0.21-0.73,0.31-1.19,0.35-1.62
			c1.06,0.3,1.59,0.45,2.65,0.73c-0.2,0.44-0.33,0.82-0.53,1.57c-0.12,0.45-0.18,0.67-0.3,1.12c-0.02,0.08-0.08,0.25-0.11,0.35
			c0.95-0.4,1.83-0.45,2.94-0.17c0.88,0.22,1.54,0.6,1.93,1.11c0.42,0.55,0.52,1.13,0.32,1.97c-0.25,1.07-0.38,1.61-0.63,2.68
			c-0.15,0.62-0.23,1.16-0.27,1.62c-1.13-0.27-1.69-0.4-2.81-0.68c0.21-0.49,0.35-0.93,0.51-1.58c0.22-0.87,0.33-1.31,0.55-2.18
			c0.11-0.42,0.1-0.64-0.01-0.85c-0.13-0.24-0.4-0.41-0.77-0.5c-0.75-0.19-1.56,0.02-2.28,0.58c-0.23,0.86-0.35,1.29-0.58,2.15
			c-0.16,0.6-0.26,1.05-0.32,1.62C21.94,63.19,21.39,63.03,20.28,62.72z"/>
		<path class="st6" d="M34.27,63.35c-0.05,0.9,0.49,1.49,1.56,1.7c0.54,0.11,1.04,0.06,1.44-0.13c0.23-0.11,0.35-0.21,0.51-0.47
			c0.9,0.39,1.35,0.58,2.25,0.95c-0.41,0.51-0.66,0.72-1.09,0.95c-0.88,0.46-2.04,0.58-3.39,0.31c-1.34-0.26-2.33-0.78-2.97-1.56
			c-0.66-0.81-0.89-1.82-0.65-2.88c0.47-2.12,2.44-3.14,4.94-2.65c2.05,0.4,3.31,1.57,3.5,3.26c0.05,0.36,0.02,0.83-0.04,1.45
			c-0.01,0.04-0.02,0.11-0.02,0.22C37.89,64.08,36.68,63.85,34.27,63.35z M38.04,62.55c-0.06-0.72-0.56-1.2-1.47-1.38
			c-0.94-0.19-1.58,0.04-1.95,0.7C35.98,62.16,36.67,62.3,38.04,62.55z"/>
		<path class="st6" d="M57.09,69.36C57.07,69,57,68.61,56.9,68.17c-0.31-1.32-0.47-1.98-0.76-3.29c-0.1-0.44-0.16-0.95-0.23-1.68
			c-0.12,0.44-0.34,1.11-0.55,1.61c-0.51,1.25-0.78,1.88-1.3,3.12c-0.23,0.53-0.34,0.84-0.41,1.13c-1.1-0.11-1.64-0.16-2.74-0.29
			c-0.03-0.32-0.08-0.56-0.21-1.21c-0.58-2.71-0.85-4.07-1.36-6.78c-0.11-0.58-0.23-1.1-0.33-1.41c1.19,0.15,1.79,0.23,2.98,0.36
			c-0.03,0.39,0,0.75,0.05,1.22c0.19,1.36,0.29,2.04,0.49,3.4c0.02,0.17,0.06,0.69,0.13,1.57c0.3-0.89,0.43-1.28,0.54-1.5
			c0.57-1.31,0.85-1.96,1.4-3.27c0.21-0.48,0.32-0.81,0.4-1.11c0.93,0.09,1.4,0.13,2.33,0.21c0.03,0.29,0.08,0.6,0.21,1.13
			c0.32,1.38,0.48,2.07,0.82,3.45c0.08,0.36,0.15,0.73,0.26,1.62c0.04-0.21,0.04-0.21,0.16-0.66c0.06-0.24,0.19-0.76,0.26-0.93
			c0.43-1.28,0.64-1.92,1.06-3.2c0.17-0.49,0.24-0.81,0.28-1.19c1.19,0.08,1.79,0.11,2.98,0.17c-0.15,0.29-0.36,0.79-0.56,1.33
			c-0.98,2.58-1.49,3.86-2.53,6.43c-0.21,0.5-0.36,0.91-0.42,1.17C58.75,69.48,58.2,69.44,57.09,69.36z"/>
		<path class="st6" d="M72.23,69.95c-0.11-0.52-0.19-0.81-0.33-1.18c-0.15-0.37-0.22-0.56-0.37-0.93c-1.56,0-2.34-0.01-3.89-0.05
			c-0.16,0.37-0.23,0.55-0.39,0.92c-0.19,0.43-0.3,0.77-0.38,1.17c-1.29-0.04-1.94-0.06-3.23-0.12c0.22-0.32,0.36-0.58,0.72-1.31
			c1.29-2.59,1.92-3.89,3.13-6.49c0.25-0.53,0.38-0.86,0.45-1.17c1.37,0.03,2.06,0.04,3.43,0.05c0.09,0.32,0.18,0.6,0.45,1.18
			c1.15,2.64,1.74,3.95,2.97,6.57c0.27,0.58,0.5,1.02,0.68,1.32C74.17,69.94,73.52,69.94,72.23,69.95z M69.63,62.69
			c-0.51,1.31-0.77,1.96-1.3,3.26c1.02,0.02,1.53,0.03,2.54,0.03C70.36,64.67,70.11,64.01,69.63,62.69z"/>
		<path class="st6" d="M82.44,68c0.04,0.66,0.09,1.14,0.2,1.64c-1.22,0.07-1.83,0.1-3.05,0.15c0.06-0.52,0.07-0.97,0.04-1.66
			c-0.09-2.21-0.14-3.31-0.23-5.51c-0.63,0.03-0.94,0.04-1.57,0.06c-0.84,0.03-1.06,0.04-2,0.13c-0.02-0.84-0.03-1.25-0.04-2.09
			c0.43,0.03,1.16,0.05,1.96,0.02c2.3-0.07,3.45-0.13,5.75-0.28c0.92-0.06,1.44-0.12,2.04-0.22c0.06,0.83,0.09,1.25,0.16,2.09
			c-0.6-0.01-1.12,0.01-2.08,0.07c-0.6,0.04-0.9,0.06-1.5,0.09C82.26,64.69,82.32,65.8,82.44,68z"/>
		<path class="st6" d="M95.23,62.53c-0.38-0.96-1.14-1.35-2.27-1.22c-1.61,0.19-2.44,1.32-2.26,3.12c0.18,1.78,1.3,2.76,2.99,2.56
			c0.75-0.09,1.36-0.42,1.7-0.9c0.2-0.29,0.26-0.52,0.29-0.99c1.14-0.01,1.71-0.02,2.85-0.05c-0.12,0.96-0.35,1.53-0.85,2.14
			c-0.74,0.89-2.02,1.48-3.69,1.67c-1.68,0.2-3.14-0.07-4.19-0.77c-1.09-0.72-1.77-1.95-1.9-3.41c-0.13-1.48,0.32-2.79,1.28-3.73
			c0.83-0.82,2.12-1.35,3.65-1.53c1.69-0.2,3.06,0.1,4.05,0.93c0.48,0.39,0.76,0.76,1.03,1.37C96.83,62.05,96.3,62.21,95.23,62.53z"
			/>
		<path class="st6" d="M109.9,56.79c0.02,0.46,0.08,0.86,0.24,1.61c0.49,2.3,0.74,3.44,1.24,5.74c0.15,0.7,0.25,1.05,0.45,1.56
			c-1.17,0.25-1.75,0.37-2.92,0.61c-0.01-0.47-0.06-0.87-0.21-1.61c-0.17-0.83-0.25-1.25-0.42-2.08c-1.8,0.36-2.7,0.53-4.5,0.84
			c0.15,0.84,0.22,1.26,0.36,2.09c0.12,0.7,0.22,1.11,0.39,1.58c-1.17,0.21-1.76,0.3-2.94,0.49c0.01-0.46-0.03-0.86-0.15-1.62
			c-0.37-2.32-0.55-3.48-0.92-5.8c-0.12-0.75-0.21-1.13-0.36-1.58c1.12-0.18,1.68-0.27,2.8-0.47c0.01,0.52,0.06,0.95,0.17,1.61
			c0.12,0.72,0.19,1.07,0.31,1.79c1.79-0.31,2.68-0.48,4.46-0.83c-0.14-0.71-0.21-1.07-0.36-1.78c-0.15-0.74-0.26-1.16-0.42-1.57
			C108.23,57.15,108.79,57.03,109.9,56.79z"/>
		<path class="st6" d="M123.4,62.89c-0.59,0.11-1.08,0.23-2.24,0.54c-1.7,0.46-2.54,0.68-4.25,1.09c-1.03,0.25-1.4,0.35-1.98,0.51
			c-0.02-0.45-0.08-0.85-0.26-1.58c-0.55-2.33-0.82-3.49-1.36-5.82c-0.15-0.66-0.27-1.03-0.47-1.53c0.53-0.1,0.9-0.18,1.9-0.42
			c1.64-0.4,2.46-0.61,4.09-1.05c0.87-0.24,1.3-0.38,1.88-0.6c0.22,0.79,0.33,1.18,0.56,1.97c-0.61,0.11-1.08,0.22-1.95,0.46
			c-1.35,0.36-2.02,0.54-3.37,0.88c0.16,0.62,0.23,0.94,0.39,1.56c1.13-0.28,1.7-0.43,2.83-0.73c0.86-0.23,1.17-0.33,1.94-0.61
			c0.22,0.78,0.33,1.17,0.54,1.95c-0.63,0.12-1.09,0.22-2,0.47c-1.14,0.3-1.71,0.45-2.85,0.74c0.18,0.71,0.27,1.07,0.45,1.78
			c1.38-0.34,2.07-0.52,3.44-0.89c1.01-0.27,1.59-0.46,2.15-0.67C123.07,61.71,123.18,62.1,123.4,62.89z"/>
		<path class="st6" d="M132.82,59.88c-0.19-0.3-0.5-0.68-1.19-1.4c-0.72-0.76-0.96-0.95-1.36-1.07c-0.34-0.1-0.69-0.08-1.11,0.05
			c-0.53,0.17-0.8,0.26-1.33,0.43c0.22,0.69,0.32,1.03,0.54,1.71c0.22,0.71,0.37,1.09,0.6,1.54c-1.15,0.36-1.72,0.54-2.87,0.88
			c-0.06-0.51-0.13-0.83-0.36-1.6c-0.68-2.26-1.02-3.39-1.69-5.64c-0.2-0.65-0.34-1.03-0.56-1.51c0.57-0.15,1.04-0.28,1.9-0.55
			c1.32-0.41,1.98-0.62,3.29-1.06c2.05-0.68,3.53-0.24,4.06,1.25c0.26,0.73,0.21,1.4-0.16,1.96c-0.24,0.35-0.47,0.56-1.05,0.94
			c0.72-0.06,1.1,0.07,1.77,0.66c0.31,0.26,0.61,0.55,1.6,1.46c0.25,0.24,0.5,0.44,1.02,0.87
			C134.68,59.24,134.06,59.45,132.82,59.88z M129.27,55.45c0.76-0.25,1.1-0.78,0.9-1.37c-0.2-0.58-0.71-0.74-1.5-0.48
			c-0.8,0.26-1.2,0.39-2.01,0.65c0.24,0.74,0.35,1.12,0.59,1.86C128.06,55.85,128.46,55.72,129.27,55.45z"/>
	</g>
</g>
</svg>
